<svg xmlns="http://www.w3.org/2000/svg" viewBox="0 0 512 512">
	<rect width="512" height="512" rx="96" fill="#f6f1e6"/>
	<path d="M160 86c0-22 192-22 192 0v56c0 22-192 22-192 0z" fill="#ff8a2a" stroke="#18212b" stroke-width="14"/>
	<path d="M183 141c-50 22-66 65-65 137v62c0 85 56 128 138 128s138-43 138-128v-62c1-72-15-115-65-137" fill="#d8f3ee" fill-opacity=".58" stroke="#18212b" stroke-width="14"/>
	<g transform="translate(256 286)">
		<ellipse cx="-62" cy="36" rx="50" ry="20" fill="#ffbf32" stroke="#8f6619" stroke-width="10" transform="rotate(-16)"/>
		<ellipse cx="26" cy="16" rx="50" ry="20" fill="#ffbf32" stroke="#8f6619" stroke-width="10" transform="rotate(8)"/>
		<ellipse cx="72" cy="60" rx="50" ry="20" fill="#ffbf32" stroke="#8f6619" stroke-width="10" transform="rotate(-22)"/>
	</g>
	<circle cx="194" cy="222" r="24" fill="#f05d53" stroke="#18212b" stroke-width="8"/>
	<rect x="262" y="202" width="58" height="42" rx="16" fill="#37a7d7" stroke="#18212b" stroke-width="8"/>
	<path d="M206 94v54M237 91v65M268 91v65M299 94v54M330 101v35" stroke="#18212b" stroke-width="8" stroke-linecap="round"/>
</svg>
